<svg width="24" height="21" viewBox="0 0 24 21" fill="none" xmlns="http://www.w3.org/2000/svg">
<path d="M23.3333 5.00001C23.3333 4.33334 22.6667 2.33334 20.6667 2.33334H6.26733C5.34933 2.33334 4.074 3.52734 3.39933 5.00001L1.33333 8.33334C0.364667 8.73268 0 9.88734 0 11V15C0 15.7073 0.280952 16.3855 0.781049 16.8856C1.28115 17.3857 1.95942 17.6667 2.66667 17.6667H21.3333C22.0406 17.6667 22.7189 17.3857 23.219 16.8856C23.719 16.3855 24 15.7073 24 15V9.66668C24 8.98201 23.3333 5.00001 23.3333 5.00001Z" fill="#CCD6DD"/>
<path d="M6 13.6667C4.95565 13.6671 3.95293 14.0761 3.20628 14.8063C2.45964 15.5365 2.02835 16.5299 2.00467 17.574C2.218 17.628 2.43667 17.6667 2.66667 17.6667H10C10 16.6058 9.57858 15.5884 8.82843 14.8382C8.07828 14.0881 7.06087 13.6667 6 13.6667ZM21.9953 17.5733C21.9717 16.5293 21.5403 15.536 20.7937 14.8059C20.047 14.0758 19.0443 13.6669 18 13.6667C15.792 13.6667 14 15.458 14 17.6667H21.3333C21.5633 17.6667 21.7827 17.628 21.9953 17.5733Z" fill="#E1E8ED"/>
<path d="M6 20.3333C7.47276 20.3333 8.66667 19.1394 8.66667 17.6667C8.66667 16.1939 7.47276 15 6 15C4.52724 15 3.33334 16.1939 3.33334 17.6667C3.33334 19.1394 4.52724 20.3333 6 20.3333Z" fill="#292F33"/>
<path d="M6 19C6.73638 19 7.33333 18.4031 7.33333 17.6667C7.33333 16.9303 6.73638 16.3333 6 16.3333C5.26362 16.3333 4.66666 16.9303 4.66666 17.6667C4.66666 18.4031 5.26362 19 6 19Z" fill="#99AAB5"/>
<path d="M18 20.3333C19.4728 20.3333 20.6667 19.1394 20.6667 17.6667C20.6667 16.1939 19.4728 15 18 15C16.5272 15 15.3333 16.1939 15.3333 17.6667C15.3333 19.1394 16.5272 20.3333 18 20.3333Z" fill="#292F33"/>
<path d="M18 19C18.7364 19 19.3333 18.4031 19.3333 17.6667C19.3333 16.9303 18.7364 16.3333 18 16.3333C17.2636 16.3333 16.6667 16.9303 16.6667 17.6667C16.6667 18.4031 17.2636 19 18 19Z" fill="#99AAB5"/>
<path d="M0 11H24V13H0V11ZM20.6667 5.66666H18.6667V3.66666H17.3333V5.66666H15.3333V6.99999H17.3333V8.99999H18.6667V6.99999H20.6667V5.66666Z" fill="#DD2E44"/>
<path d="M5.33333 3.66666H8.66666V8.33332H2.66666L5.33333 3.66666Z" fill="#55ACEE"/>
<path d="M10 1.33334C10 1.59856 9.89464 1.85291 9.7071 2.04045C9.51957 2.22799 9.26521 2.33334 9 2.33334H7.66666C7.40145 2.33334 7.14709 2.22799 6.95956 2.04045C6.77202 1.85291 6.66666 1.59856 6.66666 1.33334C6.66666 1.06813 6.77202 0.813773 6.95956 0.626237C7.14709 0.4387 7.40145 0.333344 7.66666 0.333344H9C9.26521 0.333344 9.51957 0.4387 9.7071 0.626237C9.89464 0.813773 10 1.06813 10 1.33334Z" fill="#DD2E44"/>
<path d="M12 1.33334C12 1.59856 11.8946 1.85291 11.7071 2.04045C11.5196 2.22799 11.2652 2.33334 11 2.33334H9.66666C9.40145 2.33334 9.14709 2.22799 8.95956 2.04045C8.77202 1.85291 8.66666 1.59856 8.66666 1.33334C8.66666 1.06813 8.77202 0.813773 8.95956 0.626237C9.14709 0.4387 9.40145 0.333344 9.66666 0.333344H11C11.2652 0.333344 11.5196 0.4387 11.7071 0.626237C11.8946 0.813773 12 1.06813 12 1.33334Z" fill="#55ACEE"/>
</svg>
