<svg width="14" height="20" viewBox="0 0 14 20" fill="none" xmlns="http://www.w3.org/2000/svg">
<path d="M8.806 0.767507C8.57189 0.524954 8.29133 0.332044 7.98104 0.200287C7.67075 0.06853 7.3371 0.00062561 7 0.00062561C6.6629 0.00062561 6.32925 0.06853 6.01896 0.200287C5.70867 0.332044 5.42811 0.524954 5.194 0.767507L4.93 1.04151H2.5C1.1225 1.04151 0 2.15151 0 3.52851V14.5135C0 15.889 1.1225 17 2.5 17H4V18H6.5V20H7.5V18H10V17H11.5C12.8775 17 14 15.89 14 14.513V9.50001H13V11.7695C12.8533 11.6545 12.6988 11.5499 12.5375 11.4565C11.625 10.9255 10.305 10.6495 8.746 11.5695C7.462 12.327 6.2545 12.532 4.941 12.5595C4.356 12.572 3.757 12.5495 3.116 12.525L2.8505 12.515C2.23405 12.4885 1.61699 12.4785 1 12.485V3.52901C1 2.71101 1.6685 2.04201 2.5 2.04201H5.143C5.21024 2.04194 5.27679 2.02832 5.33864 2.00194C5.4005 1.97557 5.4564 1.93699 5.503 1.88851L5.9145 1.46101C6.05531 1.31539 6.22398 1.19959 6.41046 1.12051C6.59695 1.04142 6.79744 1.00067 7 1.00067C7.20256 1.00067 7.40305 1.04142 7.58954 1.12051C7.77602 1.19959 7.94469 1.31539 8.0855 1.46101L8.497 1.88851C8.5436 1.93699 8.5995 1.97557 8.66136 2.00194C8.72321 2.02832 8.78976 2.04194 8.857 2.04201H11.665C12.405 2.04201 13 2.63701 13 3.36501V5.50001H14V3.36451C14 2.07851 12.9515 1.04151 11.665 1.04151H9.07L8.806 0.767507Z" fill="black"/>
<path fill-rule="evenodd" clip-rule="evenodd" d="M4.25 5C4.34724 5.00005 4.44236 5.02846 4.52371 5.08174C4.60506 5.13502 4.6691 5.21087 4.708 5.3L6.016 8.29L6.025 8.31L6.458 9.3C6.50632 9.42063 6.50578 9.55533 6.45649 9.67557C6.4072 9.79581 6.31303 9.89213 6.19394 9.94414C6.07486 9.99614 5.9402 9.99974 5.8185 9.95417C5.69681 9.90859 5.59764 9.81743 5.542 9.7L5.235 9H3.264L2.9575 9.7C2.90186 9.81743 2.80269 9.90859 2.68099 9.95417C2.5593 9.99974 2.42464 9.99614 2.30555 9.94414C2.18646 9.89213 2.0923 9.79581 2.04301 9.67557C1.99372 9.55533 1.99318 9.42063 2.0415 9.3L2.4745 8.31L2.4755 8.3075L2.4835 8.2895L3.7915 5.2995C3.8305 5.21039 3.89466 5.13459 3.9761 5.08139C4.05754 5.0282 4.15272 4.99991 4.25 5ZM4.798 8L4.25 6.7475L3.702 8H4.798ZM7.5 5C7.36739 5 7.24021 5.05268 7.14644 5.14645C7.05268 5.24022 7 5.36739 7 5.5V9.5C7 9.63261 7.05268 9.75979 7.14644 9.85355C7.24021 9.94732 7.36739 10 7.5 10H9.0625C9.8865 10 10.5 9.2975 10.5 8.5C10.4999 8.1339 10.3703 7.77965 10.134 7.5C10.3703 7.22035 10.4999 6.8661 10.5 6.5C10.5 5.7025 9.8865 5 9.0625 5H7.5ZM9.5 6.5C9.5 6.807 9.274 7 9.0625 7H8V6H9.0625C9.274 6 9.5 6.193 9.5 6.5ZM9.5 8.5C9.5 8.193 9.274 8 9.0625 8H8V9H9.0625C9.274 9 9.5 8.807 9.5 8.5Z" fill="black"/>
<path d="M11 7.5C11 7.36739 11.0527 7.24021 11.1464 7.14645C11.2402 7.05268 11.3674 7 11.5 7H12V6.5C12 6.36739 12.0527 6.24021 12.1464 6.14645C12.2402 6.05268 12.3674 6 12.5 6C12.6326 6 12.7598 6.05268 12.8536 6.14645C12.9473 6.24021 13 6.36739 13 6.5V7H13.5C13.6326 7 13.7598 7.05268 13.8536 7.14645C13.9473 7.24021 14 7.36739 14 7.5C14 7.63261 13.9473 7.75979 13.8536 7.85355C13.7598 7.94732 13.6326 8 13.5 8H13V8.5C13 8.63261 12.9473 8.75979 12.8536 8.85355C12.7598 8.94732 12.6326 9 12.5 9C12.3674 9 12.2402 8.94732 12.1464 8.85355C12.0527 8.75979 12 8.63261 12 8.5V8H11.5C11.3674 8 11.2402 7.94732 11.1464 7.85355C11.0527 7.75979 11 7.63261 11 7.5Z" fill="black"/>
</svg>
