<svg width="18" height="22" viewBox="0 0 18 22" fill="none" xmlns="http://www.w3.org/2000/svg">
<path d="M4.398 10.1525L2.625 17.75H15.375L13.602 10.1525C13.3601 9.11334 12.7737 8.18661 11.9381 7.52316C11.1025 6.85971 10.067 6.4986 9 6.4986C7.93305 6.4986 6.89751 6.85971 6.06191 7.52316C5.22631 8.18661 4.63986 9.11334 4.398 10.1525Z" fill="#F8312F"/>
<path d="M16.3987 21.5H1.60125C1.134 21.5 0.75 21.1378 0.75 20.6975V18.5525C0.75 18.1122 1.134 17.75 1.60125 17.75H16.3987C16.866 17.75 17.25 18.1122 17.25 18.5525V20.6975C17.25 21.1378 16.8735 21.5 16.3987 21.5Z" fill="#D3D3D3"/>
<path d="M11.9212 10.865C12.5205 10.52 12.6532 9.629 12.2182 8.876C11.7832 8.123 10.9447 7.79225 10.3462 8.138C9.74775 8.483 9.615 9.374 10.05 10.1277C10.485 10.8807 11.3227 11.2115 11.9212 10.8657" fill="#F4F4F4"/>
<path d="M8.25 1.25C8.25 1.05109 8.32902 0.860322 8.46967 0.71967C8.61032 0.579018 8.80109 0.5 9 0.5C9.19891 0.5 9.38968 0.579018 9.53033 0.71967C9.67098 0.860322 9.75 1.05109 9.75 1.25V4.25C9.75 4.44891 9.67098 4.63968 9.53033 4.78033C9.38968 4.92098 9.19891 5 9 5C8.80109 5 8.61032 4.92098 8.46967 4.78033C8.32902 4.63968 8.25 4.44891 8.25 4.25V1.25ZM15.174 2.97725C15.3203 2.83468 15.517 2.75549 15.7213 2.75683C15.9256 2.75816 16.1211 2.83992 16.2656 2.98439C16.4101 3.12886 16.4918 3.32442 16.4932 3.52873C16.4945 3.73304 16.4153 3.92965 16.2727 4.076L14.0752 6.27275C13.9282 6.4114 13.7328 6.48727 13.5307 6.48425C13.3286 6.48122 13.1356 6.39955 12.9927 6.25657C12.8498 6.11358 12.7683 5.92054 12.7654 5.71842C12.7625 5.51629 12.8385 5.321 12.9772 5.174L15.174 2.97725ZM1.72725 2.97725C1.87296 2.83156 2.07057 2.74972 2.27662 2.74972C2.48267 2.74972 2.68029 2.83156 2.826 2.97725L5.02275 5.17475C5.1614 5.32185 5.23726 5.51719 5.23424 5.71931C5.23122 5.92143 5.14955 6.11442 5.00656 6.25731C4.86358 6.40019 4.67054 6.48173 4.46841 6.48462C4.26629 6.4875 4.071 6.4115 3.924 6.27275L1.72725 4.07525C1.58179 3.92957 1.50009 3.73212 1.50009 3.52625C1.50009 3.32038 1.58179 3.12293 1.72725 2.97725Z" fill="#FCD53F"/>
</svg>
