<svg width="20" height="20" viewBox="0 0 20 20" fill="none" xmlns="http://www.w3.org/2000/svg">
<path d="M12.556 13.548L12.101 14.028C12.101 14.028 11.018 15.167 8.06299 12.056C5.10799 8.94499 6.19099 7.80599 6.19099 7.80599L6.47799 7.50299C7.18399 6.75899 7.25099 5.56499 6.63399 4.69299L5.37399 2.90999C4.60999 1.82999 3.13499 1.68799 2.25999 2.60899L0.690993 4.25999C0.257993 4.71699 -0.0320067 5.30799 0.00299333 5.96499C0.0929933 7.64499 0.810993 11.258 4.81499 15.475C9.06199 19.945 13.047 20.123 14.676 19.962C15.192 19.912 15.64 19.633 16.001 19.253L17.421 17.757C18.381 16.747 18.111 15.017 16.883 14.311L14.973 13.211C14.167 12.748 13.186 12.884 12.556 13.547" fill="black"/>
<path fill-rule="evenodd" clip-rule="evenodd" d="M20 5.00001C20.0001 5.85141 19.7829 6.68875 19.3688 7.43267C18.9547 8.17658 18.3575 8.80244 17.6338 9.25093C16.9101 9.69941 16.0839 9.95566 15.2334 9.9954C14.3829 10.0351 13.5364 9.85705 12.774 9.47801C12.5971 9.38676 12.3931 9.36295 12.2 9.41101L11.087 9.70901C10.9768 9.73851 10.8608 9.7385 10.7506 9.70896C10.6404 9.67943 10.5399 9.62141 10.4593 9.54075C10.3786 9.46008 10.3206 9.35961 10.291 9.24942C10.2615 9.13923 10.2615 9.02321 10.291 8.91301L10.589 7.80001C10.6371 7.60689 10.6132 7.40287 10.522 7.22601C10.1867 6.55103 10.0084 5.80899 10.0003 5.05538C9.9922 4.30176 10.1546 3.55607 10.4753 2.87405C10.796 2.19203 11.2667 1.59133 11.8523 1.11687C12.4379 0.642415 13.1231 0.306468 13.8568 0.134152C14.5905 -0.0381635 15.3537 -0.0423891 16.0892 0.121791C16.8248 0.285971 17.5137 0.614309 18.1045 1.08226C18.6953 1.5502 19.1726 2.14565 19.5009 2.82407C19.8291 3.5025 19.9997 4.24635 20 5.00001ZM15 2.81301C15.518 2.81301 15.938 3.23301 15.938 3.75001V4.06301H16.25C16.4986 4.06301 16.7371 4.16178 16.9129 4.3376C17.0887 4.51341 17.1875 4.75187 17.1875 5.00051C17.1875 5.24915 17.0887 5.48761 16.9129 5.66342C16.7371 5.83924 16.4986 5.93801 16.25 5.93801H15.938V6.25001C15.938 6.49865 15.8392 6.73711 15.6634 6.91292C15.4876 7.08874 15.2491 7.18751 15.0005 7.18751C14.7519 7.18751 14.5134 7.08874 14.3376 6.91292C14.1618 6.73711 14.063 6.49865 14.063 6.25001V5.93801H13.75C13.5014 5.93801 13.2629 5.83924 13.0871 5.66342C12.9113 5.48761 12.8125 5.24915 12.8125 5.00051C12.8125 4.75187 12.9113 4.51341 13.0871 4.3376C13.2629 4.16178 13.5014 4.06301 13.75 4.06301H14.063V3.75001C14.063 3.23201 14.483 2.81301 15 2.81301Z" fill="black"/>
</svg>
