<svg width="17" height="22" viewBox="0 0 17 22" fill="none" xmlns="http://www.w3.org/2000/svg">
<path d="M16.5 13.505C16.5 18.08 12.7125 21.7588 8.1375 21.4858C3.43575 21.2053 0.217505 16.6835 0.823505 11.957C1.19025 9.08226 2.538 6.61701 4.005 4.70451C4.26 4.37076 4.52175 7.05651 4.7835 6.76101C5.046 6.45726 7.479 2.24677 8.325 0.767765C8.36139 0.70253 8.41138 0.645889 8.4716 0.601691C8.53182 0.557494 8.60084 0.526774 8.67398 0.511619C8.74712 0.496464 8.82267 0.497229 8.89549 0.513862C8.96831 0.530495 9.0367 0.562607 9.096 0.608015C10.7955 1.89052 16.5 6.70777 16.5 13.505Z" fill="#FF6723"/>
<path d="M14.25 15.3882C14.25 18.4197 11.6108 20.8565 8.40076 20.7463C4.93576 20.6293 2.55976 17.4583 3.06826 14.192C3.80251 9.509 8.61001 6.5 8.61001 6.5C8.61001 6.5 14.25 10.0302 14.25 15.3882Z" fill="#FFB02E"/>
</svg>
