<svg width="18" height="18" viewBox="0 0 18 18" fill="none" xmlns="http://www.w3.org/2000/svg">
<path d="M12 5C12 5.26522 11.8946 5.51957 11.7071 5.70711C11.5196 5.89464 11.2652 6 11 6H7C6.73478 6 6.48043 5.89464 6.29289 5.70711C6.10536 5.51957 6 5.26522 6 5V1C6 0.734784 6.10536 0.48043 6.29289 0.292893C6.48043 0.105357 6.73478 0 7 0L11 0C11.2652 0 11.5196 0.105357 11.7071 0.292893C11.8946 0.48043 12 0.734784 12 1V5ZM0 7V17C0 17.2652 0.105357 17.5196 0.292893 17.7071C0.48043 17.8946 0.734784 18 1 18H17C17.2652 18 17.5196 17.8946 17.7071 17.7071C17.8946 17.5196 18 17.2652 18 17V7H0Z" fill="#CCD6DD"/>
<path d="M9 6H1C0.734784 6 0.48043 6.10536 0.292893 6.29289C0.105357 6.48043 0 6.73478 0 7H10C10 6.73478 9.89464 6.48043 9.70711 6.29289C9.51957 6.10536 9.26522 6 9 6Z" fill="#99AAB5"/>
<path d="M17 6H9C8.73478 6 8.48043 6.10536 8.29289 6.29289C8.10536 6.48043 8 6.73478 8 7H18C18 6.73478 17.8946 6.48043 17.7071 6.29289C17.5196 6.10536 17.2652 6 17 6Z" fill="#99AAB5"/>
<path d="M1 11H17V13H1V11ZM1 8H17V10H1V8ZM1 14H17V16H1V14Z" fill="#55ACEE"/>
<path d="M4 6H14V18H4V6Z" fill="#E1E8ED"/>
<path d="M5 10H13V12H5V10ZM5 7H13V9H5V7ZM5 13H13V15H5V13Z" fill="#55ACEE"/>
<path d="M6.5 16H11.5V18H6.5V16Z" fill="#3B88C3"/>
<path d="M11 2H9.5V0.5H8.5V2H7V3H8.5V4.5H9.5V3H11V2Z" fill="#DD2E44"/>
<path d="M13 5H5C4.73478 5 4.48043 5.10536 4.29289 5.29289C4.10536 5.48043 4 5.73478 4 6H14C14 5.73478 13.8946 5.48043 13.7071 5.29289C13.5196 5.10536 13.2652 5 13 5Z" fill="#99AAB5"/>
</svg>
