<svg width="22" height="20" viewBox="0 0 22 20" fill="none" xmlns="http://www.w3.org/2000/svg">
<path d="M8.98601 4C9.14301 2.594 8.00501 1 5.57101 1C3.04701 1 1.00101 3.462 1.00101 6.5C1.00101 9.538 2.53801 12 5.06301 12C6.67901 12 7.53501 10.746 7.35501 9.659" stroke="black" stroke-width="1.5" stroke-linecap="round" stroke-linejoin="round"/>
<path d="M6 6C7.5 6 9.5 6.496 9.5 9.64C9.5 13.8 7.5 15.36 9 19M16 6C14.5 6 12.5 6.496 12.5 9.64C12.5 13.8 14.5 15.36 13 19" stroke="black" stroke-width="1.5" stroke-linecap="round" stroke-linejoin="round"/>
<path d="M5.61 4C5.814 4.571 6.16 5.943 5.916 6.857C5.814 7.238 5.488 8 5 8M13.014 4C12.857 2.594 13.995 1 16.429 1C18.953 1 20.999 3.462 20.999 6.5C20.999 9.538 19.462 12 16.937 12C15.242 12 14.383 10.62 14.679 9.5" stroke="black" stroke-width="1.5" stroke-linecap="round" stroke-linejoin="round"/>
<path d="M16.39 4C16.186 4.571 15.84 5.943 16.084 6.857C16.186 7.238 16.512 8 17 8" stroke="black" stroke-width="1.5" stroke-linecap="round" stroke-linejoin="round"/>
</svg>
