<svg width="24" height="17" viewBox="0 0 24 17" fill="none" xmlns="http://www.w3.org/2000/svg">
<path d="M5.0325 6.01814C4.88813 6.03876 2.14313 6.55439 1.6275 6.92564C1.11188 7.29689 0.881251 7.67189 0.778126 8.22876C0.675001 8.78564 1.44188 9.36126 1.44188 9.36126L7.09688 9.89751L12.9581 8.96939L21.5438 9.69126L23.5144 8.48376C23.5144 8.48376 23.4413 7.07751 22.9463 6.64439C22.4513 6.21126 21.1969 6.08001 20.805 5.85314C20.4131 5.62626 19.4775 3.84689 18.3038 2.87939C16.8994 1.72439 14.9475 1.64376 13.3388 1.66251C11.5425 1.68314 10.3125 1.81251 9.8175 1.99814C9.05438 2.28689 8.50125 2.56814 7.79813 3.10626C6.72188 3.93126 5.0325 6.01814 5.0325 6.01814Z" fill="#E3E3E1"/>
<path d="M1.64813 8.59813L0.740632 8.55688C0.740632 8.55688 0.616882 10.0644 0.596257 11.2194C0.575632 12.395 0.534382 12.9125 1.02938 13.3663C1.35563 13.6663 1.95001 13.8013 2.91938 13.7806C3.88876 13.76 21.9581 13.8631 22.4138 13.8425C22.8675 13.8219 23.28 13.5538 23.3625 12.8525C23.445 12.1513 23.5481 9.48876 23.5481 9.48876L22.5169 8.41626L1.64813 8.59813Z" fill="#474C4F"/>
<path d="M9.29812 13.7956C9.29812 13.7956 9.26812 10.3869 6.10125 10.4413C2.65687 10.4994 2.9175 13.7806 2.9175 13.7806L9.29812 13.7956ZM15.9094 13.8256C15.9094 13.8256 15.9637 10.3475 19.1644 10.46C22.4925 10.5763 22.23 13.8463 22.23 13.8463L15.9094 13.8256Z" fill="#2F2F2F"/>
<path d="M3.33937 13.6887C3.35625 14.7237 4.18125 16.2125 5.9775 16.2237C7.77375 16.235 8.70562 14.8587 8.64937 13.4487C8.59125 12.0162 7.4775 11.0037 5.87437 11.0487C4.37437 11.0937 3.31687 12.2562 3.33937 13.6887Z" fill="#4E433D"/>
<path d="M4.59001 13.6025C4.59938 14.1481 5.04188 14.9338 6.00751 14.9394C6.97313 14.945 7.44001 14.2606 7.41001 13.5181C7.37813 12.7625 6.76126 12.2 5.95126 12.2113C5.14501 12.2244 4.57688 12.8469 4.59001 13.6025Z" fill="#C8C8C8"/>
<path d="M16.5994 13.7769C16.6162 14.8044 17.4225 16.2819 19.1812 16.2931C20.94 16.3044 21.8512 14.9394 21.7969 13.5406C21.7406 12.1175 20.6512 11.1144 19.0819 11.1594C17.6137 11.2006 16.5769 12.3538 16.5994 13.7769Z" fill="#4E433D"/>
<path d="M17.7731 13.6944C17.7825 14.24 18.225 15.0256 19.1906 15.0312C20.1563 15.0369 20.6231 14.3525 20.5931 13.61C20.5613 12.8544 19.9444 12.2919 19.1344 12.3031C18.33 12.3162 17.7619 12.9387 17.7731 13.6944Z" fill="#C8C8C8"/>
<path d="M0.766881 8.22501C0.766881 8.22501 2.64376 8.09939 2.74126 8.24751C2.79563 8.33001 2.35501 9.90501 2.22188 10.01C1.97626 10.2069 0.60188 10.6325 0.60188 10.6325C0.60188 10.6325 0.59813 9.70251 0.65063 9.15876C0.70688 8.60189 0.766881 8.22501 0.766881 8.22501Z" fill="#FDA431"/>
<path d="M22.5056 7.65124C22.4081 7.74874 22.4719 8.22311 22.5056 8.86436C22.53 9.31061 22.5394 9.89374 22.6894 9.92936C22.8375 9.96311 23.5594 9.95186 23.5594 9.95186C23.5594 9.95186 23.5819 9.36874 23.5481 8.72749C23.5163 8.11999 23.4113 7.63999 23.4113 7.63999C23.4113 7.63999 22.5975 7.55936 22.5056 7.65124Z" fill="#FF2A23"/>
<path d="M18.5325 6.99125C18.6244 6.94625 19.695 5.93562 19.71 5.82875C19.725 5.72187 18.6094 3.79437 17.2931 3.10625C15.9788 2.41812 15.0769 2.35812 13.5956 2.31312C12.0675 2.26625 9.86251 2.435 8.50126 3.42875C7.46626 4.18437 6.11626 6.0275 5.93251 6.27312C5.74876 6.51875 5.88751 6.8975 6.33001 6.91625C7.41563 6.95937 18.5325 6.99125 18.5325 6.99125Z" fill="#2F2F2F"/>
<path d="M7.095 6.10437C7.13812 6.16812 13.0125 6.21125 13.1362 6.14937C13.1662 6.13437 13.2094 3.11375 13.1944 3.095C13.1812 3.08 13.0069 3.08562 12.8737 3.0875C12.1237 3.09687 10.1737 3.185 9.25875 3.8075C8.19187 4.53312 7.03312 6.0125 7.095 6.10437ZM14.1262 3.12312C14.1037 3.15687 14.1075 6.21875 14.13 6.22625C14.175 6.24125 18.03 6.27125 18.09 6.24125C18.1519 6.21125 18.7012 5.72187 18.7162 5.675C18.7312 5.62812 17.9869 4.24437 16.9275 3.7025C15.9919 3.2225 14.9812 3.13812 14.4131 3.1175C14.2594 3.11187 14.1394 3.10062 14.1262 3.12312Z" fill="#535456"/>
<path d="M7.18688 7.26499C7.26 7.40374 9.465 7.37186 9.61875 7.20311C9.72375 7.08686 9.74813 5.86624 9.58875 5.73499C9.42 5.59811 8.65125 5.61686 8.10563 5.70499C7.62938 5.78186 7.04813 7.00624 7.18688 7.26499Z" fill="black"/>
<path d="M10.4906 1.84062C10.4906 1.84062 10.3819 0.749367 10.7156 0.514992C10.8675 0.408117 11.2444 0.413741 11.7712 0.402491C12.3169 0.391241 12.8719 0.402491 12.8719 0.402491L13.3106 1.61562L12.7987 1.83874L10.4906 1.84062Z" fill="#1064CB"/>
<path d="M13.7869 0.394991C13.7869 0.394991 14.1394 0.387491 14.6325 0.396866C15.075 0.406241 15.7087 0.393116 15.8869 0.638741C16.1175 0.953741 16.0387 1.86124 16.0387 1.86124L13.8019 1.84062L13.3537 0.994991L13.7869 0.394991Z" fill="#DC0D27"/>
<path d="M12.7931 0.402506L13.7944 0.396881L13.8037 1.84063H12.7931V0.402506Z" fill="#C3CCC7"/>
<path d="M11.2294 9.45126C11.055 9.48876 10.8319 12.5 12.84 12.4513C14.8238 12.4025 14.5013 9.47376 14.4019 9.43814C14.2275 9.37626 14.0794 9.92189 13.6463 9.89751C13.2881 9.87689 13.0069 9.36314 12.8081 9.37439C12.5981 9.38751 12.4425 9.88439 11.9588 9.89564C11.6138 9.90689 11.4038 9.41564 11.2294 9.45126Z" fill="#E3E4DE"/>
</svg>
